<svg xmlns="http://www.w3.org/2000/svg" fill="none">
  <defs id="symbols">
    <symbol viewBox="0 0 576 512" id="weather">
      <path
        d="M510.5 225.5c-6.9-37.2-39.3-65.5-78.5-65.5-12.3 0-23.9 3-34.3 8-17.4-24.1-45.6-40-77.7-40-53 0-96 43-96 96 0 .5.2 1.1.2 1.6C187.6 233 160 265.2 160 304c0 44.2 35.8 80 80 80h256c44.2 0 80-35.8 80-80 0-39.2-28.2-71.7-65.5-78.5zm-386.4 34.4c-37.4-37.4-37.4-98.3 0-135.8 34.6-34.6 89.1-36.8 126.7-7.4 20-12.9 43.6-20.7 69.2-20.7.7 0 1.3.2 2 .2l8.9-26.7c3.4-10.2-6.3-19.8-16.5-16.4l-75.3 25.1-35.5-71c-4.8-9.6-18.5-9.6-23.3 0l-35.5 71-75.3-25.1c-10.2-3.4-19.8 6.3-16.4 16.5l25.1 75.3-71 35.5c-9.6 4.8-9.6 18.5 0 23.3l71 35.5-25.1 75.3c-3.4 10.2 6.3 19.8 16.5 16.5l59.2-19.7c-.2-2.4-.7-4.7-.7-7.2 0-12.5 2.3-24.5 6.2-35.9-3.6-2.7-7.1-5.2-10.2-8.3zm69.8-58c4.3-24.5 15.8-46.4 31.9-64-9.8-6.2-21.4-9.9-33.8-9.9-35.3 0-64 28.7-64 64 0 18.7 8.2 35.4 21.1 47.1 11.3-15.9 26.6-28.9 44.8-37.2zm330.6 216.2c-7.6-4.3-17.4-1.8-21.8 6l-36.6 64c-4.4 7.7-1.7 17.4 6 21.8 2.5 1.4 5.2 2.1 7.9 2.1 5.5 0 10.9-2.9 13.9-8.1l36.6-64c4.3-7.7 1.7-17.4-6-21.8zm-96 0c-7.6-4.3-17.4-1.8-21.8 6l-36.6 64c-4.4 7.7-1.7 17.4 6 21.8 2.5 1.4 5.2 2.1 7.9 2.1 5.5 0 10.9-2.9 13.9-8.1l36.6-64c4.3-7.7 1.7-17.4-6-21.8zm-96 0c-7.6-4.3-17.4-1.8-21.8 6l-36.6 64c-4.4 7.7-1.7 17.4 6 21.8 2.5 1.4 5.2 2.1 7.9 2.1 5.5 0 10.9-2.9 13.9-8.1l36.6-64c4.3-7.7 1.7-17.4-6-21.8zm-96 0c-7.6-4.3-17.4-1.8-21.8 6l-36.6 64c-4.4 7.7-1.7 17.4 6 21.8 2.5 1.4 5.2 2.1 7.9 2.1 5.5 0 10.9-2.9 13.9-8.1l36.6-64c4.3-7.7 1.7-17.4-6-21.8z"
        fill="currentColor"></path>
    </symbol>
    <symbol viewBox="0 0 512 512" id="list">
      <path
        d="M48 48a48 48 0 1 0 48 48 48 48 0 0 0-48-48zm0 160a48 48 0 1 0 48 48 48 48 0 0 0-48-48zm0 160a48 48 0 1 0 48 48 48 48 0 0 0-48-48zm448 16H176a16 16 0 0 0-16 16v32a16 16 0 0 0 16 16h320a16 16 0 0 0 16-16v-32a16 16 0 0 0-16-16zm0-320H176a16 16 0 0 0-16 16v32a16 16 0 0 0 16 16h320a16 16 0 0 0 16-16V80a16 16 0 0 0-16-16zm0 160H176a16 16 0 0 0-16 16v32a16 16 0 0 0 16 16h320a16 16 0 0 0 16-16v-32a16 16 0 0 0-16-16z"
        fill="currentColor"></path>
    </symbol>
    <symbol viewBox="0 0 576 512" id="map">
      <path
        d="M0 117.66v346.32c0 11.32 11.43 19.06 21.94 14.86L160 416V32L20.12 87.95A32.006 32.006 0 0 0 0 117.66zM192 416l192 64V96L192 32v384zM554.06 33.16L416 96v384l139.88-55.95A31.996 31.996 0 0 0 576 394.34V48.02c0-11.32-11.43-19.06-21.94-14.86z"
        fill="currentColor"></path>
    </symbol>
    <symbol viewBox="0 0 512 512" id="settings">
      <path
        d="M496 384H160v-16c0-8.8-7.2-16-16-16h-32c-8.8 0-16 7.2-16 16v16H16c-8.8 0-16 7.2-16 16v32c0 8.8 7.2 16 16 16h80v16c0 8.8 7.2 16 16 16h32c8.8 0 16-7.2 16-16v-16h336c8.8 0 16-7.2 16-16v-32c0-8.8-7.2-16-16-16zm0-160h-80v-16c0-8.8-7.2-16-16-16h-32c-8.8 0-16 7.2-16 16v16H16c-8.8 0-16 7.2-16 16v32c0 8.8 7.2 16 16 16h336v16c0 8.8 7.2 16 16 16h32c8.8 0 16-7.2 16-16v-16h80c8.8 0 16-7.2 16-16v-32c0-8.8-7.2-16-16-16zm0-160H288V48c0-8.8-7.2-16-16-16h-32c-8.8 0-16 7.2-16 16v16H16C7.2 64 0 71.2 0 80v32c0 8.8 7.2 16 16 16h208v16c0 8.8 7.2 16 16 16h32c8.8 0 16-7.2 16-16v-16h208c8.8 0 16-7.2 16-16V80c0-8.8-7.2-16-16-16z"
        fill="currentColor"></path>
    </symbol>
    <symbol viewBox="0 0 512 512" id="current-location">
      <path d="M444.52 3.52L28.74 195.42c-47.97 22.39-31.98 92.75 19.19 92.75h175.91v175.91c0 51.17 70.36 67.17 92.75 19.19l191.9-415.78c15.99-38.39-25.59-79.97-63.97-63.97z"
      fill="currentColor"></path>
    </symbol>
    <symbol viewBox="0 0 24 24" id="clear-day">
      <rect fill="none" width="24" height="24" />
      <circle
        fill-rule="evenodd"
        clip-rule="evenodd"
        fill="#FFD02F"
        cx="12"
        cy="12"
        r="10" />
    </symbol>
    <symbol viewBox="0 0 24 24" id="clear-night">
      <g>
        <rect fill="none" width="24" height="24"/>
        <path fill-rule="evenodd" clip-rule="evenodd" fill="#D5DEE8" d="M9,6c0,5.5228,4.4772,10.0001,10,10.0001
          c0.7835,0,1.5459-0.0902,2.2775-0.2607c-1.4808,3.6703-5.0767,6.2607-9.2775,6.2607C6.4772,22.0001,2,17.5228,2,12
          c0-4.7393,3.297-8.7087,7.7225-9.7394C9.2566,3.4158,9,4.6779,9,6z"/>
      </g>
    </symbol>
    <symbol viewBox="0 0 24 24" id="mostly-clear-day">
      <g>
        <rect fill="none" width="24" height="24"/>
        <circle fill-rule="evenodd" clip-rule="evenodd" fill="#FFD02F" cx="16" cy="8" r="6"/>
        <g>
          <path fill-rule="evenodd" clip-rule="evenodd" fill="#FFFFFF" d="M5.25,20.5005c-1.5166,0-2.75-1.2334-2.75-2.75
            c0-1.1265,0.6777-2.127,1.7266-2.5483l0.3506-0.1406l-0.04-0.3755C4.5137,14.4609,4.5,14.2329,4.5,14.0005
            c0-3.584,2.916-6.5,6.5-6.5c2.9912,0,5.583,2.0288,6.3018,4.9331l0.0908,0.3677l0.3789,0.0117
            c2.0908,0.0664,3.7285,1.7515,3.7285,3.8374c0,2.123-1.7275,3.8501-3.8506,3.8501H5.25z"/>
          <path fill="#1D1D33" d="M10.9998,8.0003c2.7609,0,5.1527,1.8724,5.8163,4.5533l0.182,0.7352l0.757,0.024
            c1.8195,0.0576,3.2447,1.5236,3.2447,3.3375c0,1.8472-1.5028,3.35-3.35,3.35h-12.4c-1.2407,0-2.25-1.0093-2.25-2.25
            c0-0.921,0.5547-1.7391,1.413-2.0842l0.6991-0.2811l-0.0774-0.7495c-0.0234-0.2262-0.0347-0.434-0.0347-0.6353
            C4.9998,10.6919,7.6914,8.0003,10.9998,8.0003 M10.9998,7.0003c-3.866,0-7,3.133-7,7c0,0.25,0.015,0.496,0.04,0.738
            c-1.194,0.48-2.04,1.645-2.04,3.012c0,1.794,1.455,3.25,3.25,3.25h12.4c2.403,0,4.35-1.948,4.35-4.35
            c0-2.356-1.875-4.263-4.213-4.337C17.0318,9.2633,14.2838,7.0003,10.9998,7.0003L10.9998,7.0003z"/>
        </g>
      </g>
    </symbol>
    <symbol viewBox="0 0 24 24" id="mostly-clear-night">
      <g>
        <rect fill="none" width="24" height="24"/>
        <path fill-rule="evenodd" clip-rule="evenodd" fill="#D5DEE8" d="M15.2554,3.4317c0,3.3575,2.7217,6.0792,6.0792,6.0792
          c0.4762,0,0.9397-0.0549,1.3844-0.1583c-0.9,2.2311-3.086,3.8058-5.6398,3.8058C13.7217,13.1583,11,10.4367,11,7.0791
          c0-2.881,2.0043-5.2941,4.6946-5.9208C15.4114,1.8607,15.2554,2.628,15.2554,3.4317z"/>
        <g>
          <path fill-rule="evenodd" clip-rule="evenodd" fill="#FFFFFF" d="M5.25,20.5005c-1.5166,0-2.75-1.2334-2.75-2.75
            c0-1.1265,0.6777-2.127,1.7266-2.5483l0.3506-0.1406l-0.04-0.3755C4.5137,14.4614,4.5,14.2329,4.5,14.0005
            C4.5,10.416,7.416,7.5,11,7.5c2.9912,0,5.583,2.0288,6.3018,4.9331l0.0908,0.3677l0.3789,0.0117
            c2.0908,0.0664,3.7285,1.7524,3.7285,3.8379c0,2.123-1.7275,3.8501-3.8506,3.8501H5.25z"/>
          <path fill="#1D1D33" d="M10.9998,8.0002c2.7609,0,5.1527,1.8724,5.8163,4.5533l0.182,0.7352l0.757,0.024
            c1.8195,0.0577,3.2447,1.5237,3.2447,3.3376c0,1.8472-1.5028,3.35-3.35,3.35h-12.4c-1.2407,0-2.25-1.0094-2.25-2.2501
            c0-0.921,0.5547-1.7391,1.413-2.0842l0.6991-0.2811l-0.0775-0.7495c-0.0233-0.2261-0.0347-0.4338-0.0347-0.6352
            C4.9998,10.6919,7.6914,8.0002,10.9998,8.0002 M10.9998,7.0002c-3.866,0-7,3.1331-7,7.0001c0,0.2501,0.015,0.496,0.04,0.738
            c-1.194,0.48-2.04,1.6451-2.04,3.012c0,1.794,1.455,3.2501,3.25,3.2501h12.4c2.403,0,4.35-1.9481,4.35-4.35
            c0-2.3561-1.875-4.263-4.213-4.3372C17.0318,9.2633,14.2838,7.0002,10.9998,7.0002L10.9998,7.0002z"/>
        </g>
      </g>
    </symbol>
    <symbol viewBox="0 0 24 24" id="mostly-cloudy">
      <g>
        <rect fill="none" width="24" height="24"/>
        <g>
          <path fill-rule="evenodd" clip-rule="evenodd" fill="#FFFFFF" d="M5.25,18.5c-1.5166,0-2.75-1.2334-2.75-2.7495
            c0-1.1265,0.6777-2.127,1.7266-2.5483l0.3496-0.1406L4.5371,12.686C4.5137,12.4609,4.5,12.2324,4.5,12.0005
            c0-3.584,2.916-6.5,6.5-6.5c2.9912,0,5.583,2.0288,6.3018,4.9331l0.0908,0.3677l0.3789,0.0117
            c2.0908,0.0664,3.7285,1.7515,3.7285,3.8374c0,2.1226-1.7275,3.8496-3.8506,3.8496H5.25z"/>
          <path fill="#1D1D33" d="M10.9998,6.0003c2.7609,0,5.1527,1.8724,5.8163,4.5533l0.182,0.7352l0.7571,0.024
            c1.8194,0.0576,3.2446,1.5236,3.2446,3.3375c0,1.8472-1.5028,3.35-3.35,3.35h-12.4c-1.2407,0-2.25-1.0093-2.25-2.2499
            c0-0.921,0.5547-1.7391,1.413-2.0842l0.6991-0.281l-0.0774-0.7495c-0.0234-0.2263-0.0347-0.4341-0.0347-0.6353
            C4.9998,8.6919,7.6914,6.0003,10.9998,6.0003 M10.9998,5.0003c-3.866,0-7,3.133-7,7.0001c0,0.2499,0.015,0.4958,0.04,0.738
            c-1.194,0.48-2.04,1.6449-2.04,3.012c0,1.794,1.455,3.2499,3.25,3.2499h12.4c2.403,0,4.35-1.9479,4.35-4.35
            c0-2.3559-1.875-4.263-4.213-4.337C17.0318,7.2634,14.2838,5.0003,10.9998,5.0003L10.9998,5.0003z"/>
        </g>
      </g>
    </symbol>
    <symbol viewBox="0 0 24 24" id="cloudy">
      <g>
        <rect x="0" fill="none" width="24" height="24"/>
        <path fill-rule="evenodd" clip-rule="evenodd" fill="#E5E5E5" d="M20.8403,6.4685C20.274,4.0722,18.213,2.2941,15.75,2.2941
          c-2.8995,0-5.25,2.4616-5.25,5.5001c0,0.1964,0.0113,0.3896,0.03,0.5799C9.6345,8.7512,9,9.6665,9,10.7405
          c0,1.4097,1.0913,2.5535,2.4375,2.5535h9.3c1.8023,0,3.2625-1.5305,3.2625-3.4179C24,8.0252,22.5937,6.5268,20.8403,6.4685"/>
        <g>
          <g>
            <path fill="#FFFFFF" d="M3.6992,20.6764c-1.7637,0-3.1992-1.4297-3.1992-3.187c0-1.3047,0.7881-2.4639,2.0088-2.9531
              l0.3496-0.1401l-0.0391-0.375c-0.0264-0.2578-0.043-0.52-0.043-0.7856c0-4.103,3.3496-7.4414,7.4678-7.4414
              c3.4375,0,6.4141,2.3223,7.2402,5.6479l0.0918,0.3672l0.3779,0.0117c2.417,0.0767,4.3105,2.0186,4.3105,4.4209
              c0,2.4453-1.9971,4.4346-4.4512,4.4346H3.6992z"/>
            <path fill="#1D1D33" d="M10.2441,6.2941c3.2066,0,5.9842,2.1664,6.7547,5.2684l0.1824,0.7346l0.7565,0.0239
              c2.1459,0.0677,3.827,1.7899,3.827,3.9207c0,2.1697-1.7726,3.9348-3.9514,3.9348H3.6993C2.2109,20.1764,1,18.9711,1,17.4894
              c0-1.0995,0.6649-2.0764,1.694-2.4888L3.3945,14.72l-0.0778-0.7506c-0.027-0.261-0.0402-0.5011-0.0402-0.7341
              C3.2765,9.4079,6.4021,6.2941,10.2441,6.2941 M10.2441,5.2941c-4.4004,0-7.9677,3.5543-7.9677,7.9412
              c0,0.2836,0.0171,0.5627,0.0455,0.8372C0.963,14.6171,0,15.9387,0,17.4894c0,2.0353,1.6561,3.687,3.6993,3.687h14.1141
              c2.7352,0,4.9514-2.2099,4.9514-4.9348c0-2.6729-2.1342-4.8361-4.7954-4.9202C17.1099,7.8614,13.9821,5.2941,10.2441,5.2941
              L10.2441,5.2941z"/>
          </g>
        </g>
      </g>
    </symbol>
    <symbol viewBox="0 0 24 24" id="rain-light">
      <g>
        <rect fill="none" width="24" height="24"/>
        <path fill-rule="evenodd" clip-rule="evenodd" fill="#0072F5" d="M11.5342,20.0402c-0.064,0-0.129-0.012-0.192-0.0381
          c-0.255-0.1059-0.376-0.399-0.27-0.6529l0.478-1.155c0.106-0.256,0.401-0.375,0.654-0.2711c0.255,0.1061,0.376,0.399,0.27,0.654
          l-0.478,1.1541C11.9162,19.9241,11.7302,20.0402,11.5342,20.0402 M4.5242,19.7312l0.479-1.155
          c0.105-0.255-0.016-0.5481-0.271-0.6531c-0.253-0.1059-0.547,0.015-0.653,0.27l-0.479,1.1561
          c-0.105,0.255,0.016,0.5471,0.271,0.6529c0.062,0.0261,0.127,0.0381,0.191,0.0381C4.2582,20.0402,4.4442,19.9241,4.5242,19.7312
          M19.4672,19.7312l0.479-1.1541c0.105-0.255-0.016-0.5479-0.271-0.654c-0.253-0.1039-0.547,0.015-0.653,0.2711l-0.478,1.155
          c-0.106,0.2539,0.015,0.5471,0.27,0.6529c0.063,0.0261,0.128,0.0381,0.191,0.0381C19.2012,20.0402,19.3882,19.9241,19.4672,19.7312
          M8.2602,19.7312l0.478-1.1541c0.106-0.255-0.015-0.5479-0.27-0.654c-0.253-0.1039-0.547,0.015-0.653,0.2711l-0.479,1.155
          c-0.105,0.2539,0.016,0.5471,0.271,0.6529c0.062,0.0261,0.127,0.0381,0.191,0.0381C7.9942,20.0402,8.1802,19.9241,8.2602,19.7312
          M15.7322,19.7312l0.478-1.1541c0.106-0.255-0.016-0.5479-0.27-0.654c-0.253-0.1039-0.548,0.015-0.654,0.2711l-0.478,1.155
          c-0.106,0.2539,0.015,0.5471,0.27,0.6529c0.063,0.0261,0.128,0.0381,0.192,0.0381C15.4652,20.0402,15.6522,19.9241,15.7322,19.7312
          "/>
        <g>
          <path fill-rule="evenodd" clip-rule="evenodd" fill="#FFFFFF" d="M5.25,15.5c-1.5166,0-2.75-1.2334-2.75-2.75
            c0-1.1265,0.6777-2.127,1.7266-2.5483l0.3506-0.1406l-0.04-0.3755C4.5137,9.4609,4.5,9.2324,4.5,9c0-3.584,2.916-6.5,6.5-6.5
            c2.9912,0,5.583,2.0288,6.3018,4.9331l0.0908,0.3677l0.3789,0.0117C19.8623,7.8789,21.5,9.5645,21.5,11.6499
            c0,2.123-1.7275,3.8501-3.8506,3.8501H5.25z"/>
          <path fill="#1D1D33" d="M10.9999,3c2.761,0,5.1527,1.8723,5.8163,4.5532l0.182,0.7352l0.757,0.024
            c1.8195,0.0576,3.2447,1.5237,3.2447,3.3375c0,1.8472-1.5028,3.35-3.35,3.35h-12.4c-1.2407,0-2.25-1.0094-2.25-2.25
            c0-0.921,0.5546-1.739,1.413-2.0841l0.6992-0.2811L5.0346,9.6353C5.0113,9.4094,4.9999,9.2015,4.9999,9
            C4.9999,5.6917,7.6915,3,10.9999,3 M10.9999,2c-3.866,0-7,3.1331-7,7c0,0.25,0.015,0.4961,0.04,0.738
            c-1.194,0.48-2.04,1.645-2.04,3.012c0,1.7939,1.455,3.25,3.25,3.25h12.4c2.403,0,4.35-1.948,4.35-4.35
            c0-2.3561-1.875-4.2629-4.213-4.337C17.0319,4.2629,14.2839,2,10.9999,2L10.9999,2z"/>
        </g>
      </g>
    </symbol>
    <symbol viewBox="0 0 24 24" id="rain">
      <rect fill-rule="evenodd" clip-rule="evenodd" fill="none" width="24" height="24"/>
      <g>
        <path fill-rule="evenodd" clip-rule="evenodd" fill="#FFFFFF" d="M5.25,15.5c-1.5166,0-2.75-1.2334-2.75-2.75
          c0-1.1265,0.6777-2.127,1.7266-2.5483l0.3506-0.1406l-0.04-0.3755C4.5137,9.4609,4.5,9.2324,4.5,9c0-3.584,2.916-6.5,6.5-6.5
          c2.9912,0,5.583,2.0288,6.3018,4.9331l0.0908,0.3677l0.3789,0.0117C19.8623,7.8789,21.5,9.5645,21.5,11.6499
          c0,2.123-1.7275,3.8501-3.8506,3.8501H5.25z"/>
        <path fill="#1D1D33" d="M10.9998,3c2.761,0,5.1527,1.8724,5.8163,4.5532l0.182,0.7354l0.7571,0.0239
          c1.8194,0.0575,3.2446,1.5236,3.2446,3.3375c0,1.8472-1.5028,3.35-3.35,3.35h-12.4c-1.2407,0-2.25-1.0094-2.25-2.25
          c0-0.921,0.5546-1.739,1.413-2.0841l0.6991-0.281L5.0345,9.6353C5.0111,9.4091,4.9998,9.2013,4.9998,9
          C4.9998,5.6917,7.6914,3,10.9998,3 M10.9998,2c-3.866,0-7,3.1331-7,7c0,0.25,0.015,0.496,0.04,0.738
          c-1.194,0.48-2.04,1.645-2.04,3.012c0,1.7939,1.455,3.25,3.25,3.25h12.4c2.403,0,4.35-1.948,4.35-4.35
          c0-2.3561-1.875-4.2631-4.213-4.337C17.0318,4.2629,14.2838,2,10.9998,2L10.9998,2z"/>
      </g>
      <path fill-rule="evenodd" clip-rule="evenodd" fill="#0072F5" d="M11.5342,19.04c-0.0645,0-0.1289-0.0122-0.1914-0.0381
        c-0.2549-0.1055-0.376-0.3984-0.2705-0.6533l0.4785-1.1548c0.1064-0.2559,0.4014-0.375,0.6533-0.2705
        c0.2549,0.1055,0.376,0.3984,0.2705,0.6533l-0.4785,1.1548C11.916,18.9238,11.7305,19.04,11.5342,19.04z M8.2598,18.7314
        l0.4785-1.1548c0.1055-0.2549-0.0156-0.5479-0.2705-0.6533c-0.2529-0.1045-0.5469,0.0146-0.6533,0.2705l-0.4785,1.1548
        c-0.1055,0.2549,0.0156,0.5479,0.2705,0.6533c0.0625,0.0259,0.127,0.0381,0.1914,0.0381C7.9941,19.04,8.1797,18.9238,8.2598,18.7314
        z M9.4062,21.6021l0.4785-1.1548c0.1055-0.2549-0.0156-0.5479-0.2705-0.6533c-0.2539-0.105-0.5469,0.0151-0.6533,0.2705
        l-0.4785,1.1548c-0.1055,0.2549,0.0156,0.5479,0.2705,0.6533c0.0625,0.0259,0.127,0.0381,0.1914,0.0381
        C9.1406,21.9106,9.3262,21.7944,9.4062,21.6021z M5.6631,21.6016l0.4775-1.1548c0.1055-0.2549-0.0156-0.5474-0.2705-0.6528
        c-0.2549-0.106-0.5488,0.0156-0.6533,0.271l-0.4775,1.1548c-0.1055,0.2549,0.0156,0.5474,0.2705,0.6528
        c0.0625,0.0259,0.1279,0.0381,0.1914,0.0381C5.3975,21.9106,5.584,21.7944,5.6631,21.6016z M4.5244,18.7314l0.4785-1.1553
        c0.1055-0.2554-0.0156-0.5479-0.2705-0.6533c-0.2559-0.1064-0.5469,0.0156-0.6533,0.2705l-0.4785,1.1553
        c-0.1055,0.2554,0.0156,0.5479,0.2705,0.6533C3.9336,19.0278,3.999,19.04,4.0625,19.04C4.2588,19.04,4.4443,18.9238,4.5244,18.7314z
        M19.4678,18.7314l0.4785-1.1548c0.1055-0.2549-0.0156-0.5479-0.2705-0.6533c-0.2529-0.1045-0.5469,0.0146-0.6533,0.2705
        l-0.4785,1.1548c-0.1055,0.2549,0.0156,0.5479,0.2705,0.6533c0.0625,0.0259,0.127,0.0381,0.1914,0.0381
        C19.2021,19.04,19.3877,18.9238,19.4678,18.7314z M15.7314,18.7314l0.4785-1.1548c0.1055-0.2549-0.0156-0.5479-0.2705-0.6533
        c-0.252-0.1045-0.5469,0.0146-0.6533,0.2705l-0.4785,1.1548c-0.1055,0.2549,0.0156,0.5479,0.2705,0.6533
        c0.0625,0.0259,0.127,0.0381,0.1914,0.0381C15.4658,19.04,15.6514,18.9238,15.7314,18.7314z M16.8945,21.6016l0.4775-1.1548
        c0.1055-0.2549-0.0156-0.5474-0.2705-0.6528c-0.2549-0.106-0.5479,0.0156-0.6533,0.271l-0.4775,1.1548
        c-0.1055,0.2549,0.0156,0.5474,0.2705,0.6528c0.0625,0.0259,0.1279,0.0381,0.1914,0.0381
        C16.6289,21.9106,16.8154,21.7944,16.8945,21.6016z M13.1504,21.6021l0.4785-1.1548c0.1055-0.2549-0.0156-0.5479-0.2705-0.6533
        c-0.2529-0.105-0.5469,0.0151-0.6533,0.2705l-0.4785,1.1548c-0.1055,0.2549,0.0156,0.5479,0.2705,0.6533
        c0.0625,0.0259,0.127,0.0381,0.1914,0.0381C12.8848,21.9106,13.0703,21.7944,13.1504,21.6021z"/>
    </symbol>
    <symbol viewBox="0 0 24 24" id="thunderstorm">
      <g>
        <rect fill="none" width="24" height="24"/>
        <path fill-rule="evenodd" clip-rule="evenodd" fill="#0072F5" d="M17.2667,22.1674L17.2667,22.1674
          c-0.2552-0.1059-0.3764-0.3983-0.2705-0.6535l1.6271-3.9261c0.1057-0.2552,0.3981-0.3764,0.6535-0.2707
          c0.2552,0.1059,0.3762,0.3985,0.2705,0.6536l-1.6271,3.9261C17.8145,22.152,17.5217,22.2731,17.2667,22.1674 M2.9772,21.8977
          l1.6271-3.926c0.1057-0.2552-0.0154-0.5478-0.2705-0.6535c-0.2552-0.1057-0.5478,0.0154-0.6535,0.2705l-1.6271,3.9261
          c-0.1059,0.2552,0.0154,0.5478,0.2705,0.6535C2.5789,22.2741,2.8715,22.1531,2.9772,21.8977 M6.7129,21.8975l1.6271-3.9261
          c0.1057-0.2552-0.0154-0.5478-0.2705-0.6535c-0.2552-0.1057-0.5478,0.0154-0.6535,0.2705l-1.6271,3.9263
          c-0.1057,0.2552,0.0154,0.5476,0.2705,0.6535C6.3146,22.2738,6.6072,22.1529,6.7129,21.8975 M14.1843,21.8972l1.6272-3.9263
          c0.1057-0.2552-0.0155-0.5478-0.2705-0.6535c-0.2554-0.1057-0.5479,0.0154-0.6535,0.2705l-1.6272,3.9263
          c-0.1057,0.255,0.0155,0.5476,0.2705,0.6535C13.786,22.2732,14.0788,22.1522,14.1843,21.8972 M16.0522,21.897l0.3432-0.8289
          c0.1059-0.2552-0.0152-0.5476-0.2705-0.6535c-0.2552-0.1057-0.5476,0.0155-0.6535,0.2705l-0.3432,0.8289
          c-0.1059,0.2552,0.0154,0.5476,0.2705,0.6535C15.6539,22.2731,15.9465,22.152,16.0522,21.897 M8.5807,21.8973l0.3434-0.8287
          c0.1057-0.255-0.0154-0.5476-0.2705-0.6535c-0.2552-0.1057-0.5478,0.0155-0.6535,0.2707l-0.3434,0.8287
          c-0.1057,0.2552,0.0154,0.5478,0.2707,0.6535C8.1824,22.2738,8.4749,22.1527,8.5807,21.8973 M4.8449,21.8975l0.3434-0.8285
          c0.1057-0.2552-0.0155-0.5478-0.2707-0.6535c-0.255-0.1059-0.5478,0.0154-0.6535,0.2705l-0.3432,0.8289
          c-0.1057,0.255,0.0154,0.5476,0.2705,0.6535C4.4468,22.2739,4.7392,22.1529,4.8449,21.8975 M17.0657,19.4515l0.6138-1.4808
          c0.1055-0.2552-0.0155-0.5478-0.2707-0.6535c-0.2552-0.1057-0.5478,0.0155-0.6533,0.2707l-0.6138,1.4808
          c-0.1057,0.255,0.0155,0.5478,0.2705,0.6533C16.6674,19.8279,16.9602,19.7066,17.0657,19.4515 M9.5943,19.452l0.6136-1.4808
          c0.1057-0.2552-0.0154-0.5478-0.2705-0.6535c-0.2552-0.1057-0.5478,0.0155-0.6535,0.2705l-0.6136,1.4809
          c-0.1059,0.255,0.0154,0.5478,0.2705,0.6535C9.196,19.8284,9.4886,19.7072,9.5943,19.452 M5.8586,19.4523l0.6136-1.4808
          c0.1057-0.2552-0.0155-0.5478-0.2707-0.6535c-0.255-0.1057-0.5478,0.0154-0.6535,0.2705l-0.6134,1.4808
          c-0.1057,0.2552,0.0154,0.5479,0.2705,0.6535C5.4603,19.8288,5.7529,19.7075,5.8586,19.4523"/>
        <path fill-rule="evenodd" clip-rule="evenodd" fill="#E5E5E5" d="M20.8403,5.1745C20.274,2.778,18.213,1.0001,15.75,1.0001
          c-2.8995,0-5.25,2.4616-5.25,5.4999c0,0.1964,0.0113,0.3898,0.03,0.5799C9.6345,7.4569,9,8.3723,9,9.4465
          C9,10.8559,10.0913,12,11.4375,12h9.3C22.5398,12,24,10.4695,24,8.5821C24,6.7309,22.5937,5.2327,20.8403,5.1745"/>
        <g>
          <path fill-rule="evenodd" clip-rule="evenodd" fill="#FFFFFF" d="M5.25,15.5c-1.5166,0-2.75-1.2334-2.75-2.7495
            c0-1.1265,0.6777-2.127,1.7266-2.5483l0.3496-0.1406L4.5371,9.686C4.5137,9.4609,4.5,9.2324,4.5,9.0005c0-3.584,2.916-6.5,6.5-6.5
            c2.9912,0,5.583,2.0288,6.3018,4.9331l0.0908,0.3677l0.3789,0.0117C19.8623,7.8794,21.5,9.5645,21.5,11.6504
            c0,2.1226-1.7275,3.8496-3.8506,3.8496H5.25z"/>
          <path fill="#1D1D33" d="M10.9998,3.0003c2.7609,0,5.1527,1.8724,5.8163,4.5533l0.182,0.7353l0.7571,0.0239
            c1.8195,0.0575,3.2446,1.5235,3.2446,3.3374c0,1.8472-1.5028,3.35-3.35,3.35h-12.4c-1.2407,0-2.25-1.0093-2.25-2.2499
            c0-0.921,0.5547-1.7391,1.413-2.0842l0.6991-0.281L5.0345,9.6356C5.0111,9.4094,4.9998,9.2015,4.9998,9.0004
            C4.9998,5.6919,7.6914,3.0003,10.9998,3.0003 M10.9998,2.0003c-3.866,0-7,3.1331-7,7.0001c0,0.2499,0.015,0.4958,0.04,0.738
            c-1.194,0.48-2.04,1.6449-2.04,3.012c0,1.794,1.455,3.2499,3.25,3.2499h12.4c2.403,0,4.35-1.9479,4.35-4.35
            c0-2.3558-1.875-4.263-4.213-4.3369C17.0318,4.2634,14.2838,2.0003,10.9998,2.0003L10.9998,2.0003z"/>
        </g>
        <path fill-rule="evenodd" clip-rule="evenodd" fill="#FFD02F" d="M12.6419,13.6998h2.9958c0.5208,0,0.8363,0.575,0.5569,1.0144
          l-4.7331,7.4405c-0.1627,0.2555-0.4782,0.3676-0.7657,0.2718c-0.123-0.0492-0.123-0.0492-0.2322-0.1288
          c-0.1751-0.1459-0.2626-0.3718-0.2314-0.5975l0.546-3.9535l0.0994-0.7466H8.3615c-0.4046,0-0.714-0.3607-0.6524-0.7604
          l0.9148-5.9405c0.0496-0.3219,0.3266-0.5594,0.6524-0.5594h3.2486c0.408,0,0.7182,0.3665,0.6508,0.769L12.6419,13.6998z"/>
      </g>
    </symbol>
    <symbol viewBox="0 0 24 24" id="snow">
      <rect x="0" y="0" fill="none" width="24" height="24"/>
      <g>
        <path fill-rule="evenodd" clip-rule="evenodd" fill="#FFFFFF" d="M5.25,15.5c-1.5166,0-2.75-1.2334-2.75-2.75
          c0-1.126,0.6777-2.1265,1.7266-2.5483l0.3506-0.1406l-0.04-0.3755C4.5137,9.4609,4.5,9.2324,4.5,9c0-3.584,2.916-6.5,6.5-6.5
          c2.9912,0,5.583,2.0288,6.3018,4.9331l0.0908,0.3677l0.3789,0.0117C19.8623,7.8789,21.5,9.5645,21.5,11.6499
          c0,2.123-1.7275,3.8501-3.8506,3.8501H5.25z"/>
        <path fill="#1D1D33" d="M10.9999,2.9999c2.7609,0,5.1527,1.8724,5.8163,4.5533l0.182,0.7352l0.757,0.024
          c1.8195,0.0577,3.2447,1.5237,3.2447,3.3376c0,1.8472-1.5028,3.35-3.35,3.35h-12.4c-1.2407,0-2.25-1.0094-2.25-2.2501
          c0-0.921,0.5546-1.7391,1.413-2.0842l0.6992-0.2811L5.0346,9.6352C5.0113,9.4094,4.9999,9.2016,4.9999,9
          C4.9999,5.6916,7.6915,2.9999,10.9999,2.9999 M10.9999,1.9999c-3.866,0-7,3.1331-7,7.0001c0,0.2501,0.015,0.4961,0.04,0.738
          c-1.194,0.48-2.04,1.6451-2.04,3.012c0,1.794,1.455,3.2501,3.25,3.2501h12.4c2.403,0,4.35-1.9481,4.35-4.35
          c0-2.3561-1.875-4.263-4.213-4.3372C17.0319,4.263,14.2839,1.9999,10.9999,1.9999L10.9999,1.9999z"/>
      </g>
      <path fill="#0072F5" d="M6.3198,19.6601l-0.8167,0.4714l0.8167,0.4714c0.2393,0.1382,0.3213,0.4438,0.1826,0.6831
        c-0.0918,0.1602-0.2607,0.25-0.4326,0.25c-0.085,0-0.1709-0.0215-0.25-0.0669l-0.8164-0.4713v0.943c0,0.2764-0.2236,0.5-0.5,0.5
        s-0.5-0.2236-0.5-0.5v-0.9435L3.186,21.4692c-0.0791,0.0454-0.165,0.0669-0.25,0.0669c-0.1719,0-0.3408-0.0898-0.4326-0.25
        c-0.1387-0.2393-0.0566-0.5449,0.1826-0.6831l0.8167-0.4714L2.686,19.6601c-0.2393-0.1382-0.3213-0.4438-0.1826-0.6831
        c0.1377-0.2388,0.4443-0.3203,0.6826-0.1831l0.8174,0.4719v-0.9435c0-0.2764,0.2236-0.5,0.5-0.5s0.5,0.2236,0.5,0.5v0.943
        l0.8164-0.4713c0.2383-0.1387,0.5449-0.0566,0.6826,0.1831C6.6411,19.2163,6.5591,19.5219,6.3198,19.6601z M21.314,20.603
        l-0.8167-0.4714l0.8167-0.4714c0.2393-0.1382,0.3213-0.4438,0.1826-0.6831c-0.1377-0.2397-0.4453-0.3218-0.6826-0.1831
        l-0.8174,0.4719v-0.9435c0-0.2764-0.2236-0.5-0.5-0.5s-0.5,0.2236-0.5,0.5v0.943l-0.8164-0.4713
        c-0.2383-0.1372-0.5449-0.0557-0.6826,0.1831c-0.1387,0.2393-0.0566,0.5449,0.1826,0.6831l0.8167,0.4714l-0.8167,0.4714
        c-0.2393,0.1382-0.3213,0.4438-0.1826,0.6831c0.0918,0.1602,0.2607,0.25,0.4326,0.25c0.085,0,0.1709-0.0215,0.25-0.0669
        l0.8164-0.4713v0.943c0,0.2764,0.2236,0.5,0.5,0.5s0.5-0.2236,0.5-0.5v-0.9435l0.8174,0.4719
        c0.0791,0.0454,0.165,0.0669,0.25,0.0669c0.1719,0,0.3408-0.0898,0.4326-0.25C21.6352,21.0468,21.5532,20.7412,21.314,20.603z
        M13.9995,18.977c-0.1377-0.2397-0.4443-0.3218-0.6826-0.1831l-0.8164,0.4713v-0.943c0-0.2764-0.2236-0.5-0.5-0.5
        s-0.5,0.2236-0.5,0.5v0.9435l-0.8174-0.4719c-0.2383-0.1372-0.5449-0.0557-0.6826,0.1831
        c-0.1387,0.2393-0.0566,0.5449,0.1826,0.6831l0.8167,0.4714l-0.8167,0.4714c-0.2393,0.1382-0.3213,0.4438-0.1826,0.6831
        c0.0918,0.1602,0.2607,0.25,0.4326,0.25c0.085,0,0.1709-0.0215,0.25-0.0669l0.8174-0.4719v0.9435c0,0.2764,0.2236,0.5,0.5,0.5
        s0.5-0.2236,0.5-0.5v-0.943l0.8164,0.4713c0.0791,0.0454,0.165,0.0669,0.25,0.0669c0.1719,0,0.3408-0.0898,0.4326-0.25
        c0.1387-0.2393,0.0566-0.5449-0.1826-0.6831l-0.8167-0.4714l0.8167-0.4714C14.0561,19.5219,14.1382,19.2163,13.9995,18.977z"/>
    </symbol>
    <symbol viewBox="0 0 24 24" id="fog">
      <g>
        <rect fill="none" width="24" height="24"/>
        <g>
          <linearGradient id="SVGID_1_" gradientUnits="userSpaceOnUse" x1="11.9998" y1="16.0002" x2="11.9998" y2="2.0003">
            <stop  offset="0.25" style="stop-color:#FFFFFF;stop-opacity:0"/>
            <stop  offset="1" style="stop-color:#FFFFFF"/>
          </linearGradient>
          <path fill-rule="evenodd" clip-rule="evenodd" fill="url(#SVGID_1_)" d="M10.9998,2.0003c-3.866,0-7,3.132-7,7.0001
            c0,0.2499,0.015,0.4959,0.04,0.738c-1.194,0.4789-2.04,1.644-2.04,3.012c0,1.793,1.455,3.2499,3.25,3.2499h12.4
            c2.403,0,4.35-1.9489,4.35-4.35c0-2.3569-1.875-4.263-4.213-4.337C17.0318,4.2633,14.2838,2.0003,10.9998,2.0003z"/>
          <linearGradient id="SVGID_2_" gradientUnits="userSpaceOnUse" x1="11.9998" y1="16.0002" x2="11.9998" y2="2.0003">
            <stop  offset="0.25" style="stop-color:#1D1D33;stop-opacity:0"/>
            <stop  offset="0.7" style="stop-color:#1D1D33"/>
          </linearGradient>
          <path fill="url(#SVGID_2_)" d="M10.9998,3.0003c2.7609,0,5.1527,1.8724,5.8163,4.5533l0.182,0.7352l0.7571,0.024
            c1.8194,0.0576,3.2446,1.5236,3.2446,3.3375c0,1.8472-1.5028,3.35-3.35,3.35h-12.4c-1.2407,0-2.25-1.0093-2.25-2.2499
            c0-0.9218,0.5544-1.7397,1.4123-2.0839l0.6999-0.2807L5.0345,9.6356C5.0111,9.4094,4.9998,9.2015,4.9998,9.0004
            C4.9998,5.6919,7.6914,3.0003,10.9998,3.0003 M10.9998,2.0003c-3.866,0-7,3.132-7,7.0001c0,0.2499,0.015,0.4958,0.04,0.738
            c-1.194,0.4789-2.04,1.644-2.04,3.012c0,1.793,1.455,3.2499,3.25,3.2499h12.4c2.403,0,4.35-1.949,4.35-4.35
            c0-2.3569-1.875-4.263-4.213-4.337C17.0318,4.2634,14.2838,2.0003,10.9998,2.0003L10.9998,2.0003z"/>
        </g>
        <path fill-rule="evenodd" clip-rule="evenodd" fill="#D5DEE8" d="M11.9968,21.8592c-2.577,0-3.886-0.4191-5.151-0.823
          c-1.247-0.4001-2.425-0.777-4.846-0.777c-0.276,0-0.5-0.223-0.5-0.4999c0-0.276,0.224-0.5001,0.5-0.5001
          c2.578,0,3.886,0.4191,5.151,0.8241c1.247,0.399,2.425,0.7759,4.846,0.7759c2.423,0,3.601-0.3769,4.849-0.7759
          c1.266-0.405,2.575-0.8241,5.154-0.8241c0.277,0,0.5,0.2241,0.5,0.5001c0,0.2769-0.223,0.4999-0.5,0.4999
          c-2.422,0-3.601,0.3769-4.849,0.777C15.8848,21.4401,14.5758,21.8592,11.9968,21.8592 M11.9968,15.8592
          c-2.577,0-3.886-0.4191-5.151-0.823c-1.247-0.4001-2.425-0.777-4.846-0.777c-0.276,0-0.5-0.223-0.5-0.4999
          c0-0.276,0.224-0.5001,0.5-0.5001c2.578,0,3.886,0.4191,5.151,0.8241c1.247,0.399,2.425,0.7759,4.846,0.7759
          c2.423,0,3.601-0.3769,4.849-0.7759c1.266-0.405,2.575-0.8241,5.154-0.8241c0.277,0,0.5,0.2241,0.5,0.5001
          c0,0.2769-0.223,0.4999-0.5,0.4999c-2.422,0-3.601,0.3769-4.849,0.777C15.8848,15.4401,14.5758,15.8592,11.9968,15.8592
          M11.9968,18.8592c-2.577,0-3.886-0.4191-5.151-0.823c-1.247-0.4001-2.425-0.777-4.846-0.777c-0.276,0-0.5-0.223-0.5-0.4999
          c0-0.276,0.224-0.5001,0.5-0.5001c2.578,0,3.886,0.4191,5.151,0.8241c1.247,0.399,2.425,0.7759,4.846,0.7759
          c2.423,0,3.601-0.3769,4.849-0.7759c1.266-0.405,2.575-0.8241,5.154-0.8241c0.277,0,0.5,0.2241,0.5,0.5001
          c0,0.2769-0.223,0.4999-0.5,0.4999c-2.422,0-3.601,0.3769-4.849,0.777C15.8848,18.4401,14.5758,18.8592,11.9968,18.8592"/>
      </g>
    </symbol>
    <symbol viewBox="0 0 256 512" id="thermometer">
      <path
        d="M192 384c0 35.346-28.654 64-64 64s-64-28.654-64-64c0-23.685 12.876-44.349 32-55.417V224c0-17.673 14.327-32 32-32s32 14.327 32 32v104.583c19.124 11.068 32 31.732 32 55.417zm32-84.653c19.912 22.563 32 52.194 32 84.653 0 70.696-57.303 128-128 128-.299 0-.609-.001-.909-.003C56.789 511.509-.357 453.636.002 383.333.166 351.135 12.225 321.755 32 299.347V96c0-53.019 42.981-96 96-96s96 42.981 96 96v203.347zM208 384c0-34.339-19.37-52.19-32-66.502V96c0-26.467-21.533-48-48-48S80 69.533 80 96v221.498c-12.732 14.428-31.825 32.1-31.999 66.08-.224 43.876 35.563 80.116 79.423 80.42L128 464c44.112 0 80-35.888 80-80z"
        fill="currentColor"></path>
    </symbol>
    <symbol viewBox="0 0 512 512" id="wind">
      <path d="M156.7 256H16c-8.8 0-16 7.2-16 16v32c0 8.8 7.2 16 16 16h142.2c15.9 0 30.8 10.9 33.4 26.6 3.3 20-12.1 37.4-31.6 37.4-14.1 0-26.1-9.2-30.4-21.9-2.1-6.3-8.6-10.1-15.2-10.1H81.6c-9.8 0-17.7 8.8-15.9 18.4 8.6 44.1 47.6 77.6 94.2 77.6 57.1 0 102.7-50.1 95.2-108.6C249 291 205.4 256 156.7 256zM16 224h336c59.7 0 106.8-54.8 93.8-116.7-7.6-36.2-36.9-65.5-73.1-73.1-55.4-11.6-105.1 24.9-114.9 75.5-1.9 9.6 6.1 18.3 15.8 18.3h32.8c6.7 0 13.1-3.8 15.2-10.1C325.9 105.2 337.9 96 352 96c19.4 0 34.9 17.4 31.6 37.4-2.6 15.7-17.4 26.6-33.4 26.6H16c-8.8 0-16 7.2-16 16v32c0 8.8 7.2 16 16 16zm384 32H243.7c19.3 16.6 33.2 38.8 39.8 64H400c26.5 0 48 21.5 48 48s-21.5 48-48 48c-17.9 0-33.3-9.9-41.6-24.4-2.9-5-8.7-7.6-14.5-7.6h-33.8c-10.9 0-19 10.8-15.3 21.1 17.8 50.6 70.5 84.8 129.4 72.3 41.2-8.7 75.1-41.6 84.7-82.7C526 321.5 470.5 256 400 256z"
      fill="currentColor" />
    </symbol>
    <symbol viewBox="0 0 352 512" id="tint">
      <path d="M205.22 22.09c-7.94-28.78-49.44-30.12-58.44 0C100.01 179.85 0 222.72 0 333.91 0 432.35 78.72 512 176 512s176-79.65 176-178.09c0-111.75-99.79-153.34-146.78-311.82zM176 448c-61.75 0-112-50.25-112-112 0-8.84 7.16-16 16-16s16 7.16 16 16c0 44.11 35.89 80 80 80 8.84 0 16 7.16 16 16s-7.16 16-16 16z"
      fill="currentColor" /></symbol>
    <symbol viewBox="0 0 512 512" id="sun">
      <path d="M256 160c-52.9 0-96 43.1-96 96s43.1 96 96 96 96-43.1 96-96-43.1-96-96-96zm246.4 80.5l-94.7-47.3 33.5-100.4c4.5-13.6-8.4-26.5-21.9-21.9l-100.4 33.5-47.4-94.8c-6.4-12.8-24.6-12.8-31 0l-47.3 94.7L92.7 70.8c-13.6-4.5-26.5 8.4-21.9 21.9l33.5 100.4-94.7 47.4c-12.8 6.4-12.8 24.6 0 31l94.7 47.3-33.5 100.5c-4.5 13.6 8.4 26.5 21.9 21.9l100.4-33.5 47.3 94.7c6.4 12.8 24.6 12.8 31 0l47.3-94.7 100.4 33.5c13.6 4.5 26.5-8.4 21.9-21.9l-33.5-100.4 94.7-47.3c13-6.5 13-24.7.2-31.1zm-155.9 106c-49.9 49.9-131.1 49.9-181 0-49.9-49.9-49.9-131.1 0-181 49.9-49.9 131.1-49.9 181 0 49.9 49.9 49.9 131.1 0 181z"
      fill="currentColor" /></symbol>
    <symbol viewBox="0 0 496 512" id="compass">
      <path d="M225.38 233.37c-12.5 12.5-12.5 32.76 0 45.25 12.49 12.5 32.76 12.5 45.25 0 12.5-12.5 12.5-32.76 0-45.25-12.5-12.49-32.76-12.49-45.25 0zM248 8C111.03 8 0 119.03 0 256s111.03 248 248 248 248-111.03 248-248S384.97 8 248 8zm126.14 148.05L308.17 300.4a31.938 31.938 0 0 1-15.77 15.77l-144.34 65.97c-16.65 7.61-33.81-9.55-26.2-26.2l65.98-144.35a31.938 31.938 0 0 1 15.77-15.77l144.34-65.97c16.65-7.6 33.8 9.55 26.19 26.2z"
      fill="currentColor" /></symbol>
    <symbol viewBox="0 0 24 32" id="humidity">
      <path d="M13.994 1.381c3.2 9.906 10.006 12.506 10.006 19.488 0 6.15-5.369 11.131-12 11.131s-12-4.981-12-11.131c0-6.95 6.819-9.631 10.006-19.488 0.619-1.881 3.444-1.8 3.988 0zM6 18c0 1.106 0.894 2 2 2s2-0.894 2-2-0.894-2-2-2-2 0.894-2 2zM9.094 26.238l7.375-9.219c0.175-0.212 0.144-0.525-0.075-0.7l-0.781-0.625c-0.212-0.175-0.525-0.137-0.7 0.075l-7.375 9.219c-0.175 0.213-0.137 0.525 0.075 0.7l0.781 0.625c0.213 0.175 0.525 0.144 0.7-0.075zM16 26c1.106 0 2-0.894 2-2s-0.894-2-2-2-2 0.894-2 2 0.894 2 2 2z"
      fill="currentColor" ></path>
    </symbol>
    <symbol viewBox="0 0 576 512" id="pressure">
      <path d="M288 32C128.94 32 0 160.94 0 320c0 52.8 14.25 102.26 39.06 144.8 5.61 9.62 16.3 15.2 27.44 15.2h443c11.14 0 21.83-5.58 27.44-15.2C561.75 422.26 576 372.8 576 320c0-159.06-128.94-288-288-288zm0 64c14.71 0 26.58 10.13 30.32 23.65-1.11 2.26-2.64 4.23-3.45 6.67l-9.22 27.67c-5.13 3.49-10.97 6.01-17.64 6.01-17.67 0-32-14.33-32-32S270.33 96 288 96zM96 384c-17.67 0-32-14.33-32-32s14.33-32 32-32 32 14.33 32 32-14.33 32-32 32zm48-160c-17.67 0-32-14.33-32-32s14.33-32 32-32 32 14.33 32 32-14.33 32-32 32zm246.77-72.41l-61.33 184C343.13 347.33 352 364.54 352 384c0 11.72-3.38 22.55-8.88 32H232.88c-5.5-9.45-8.88-20.28-8.88-32 0-33.94 26.5-61.43 59.9-63.59l61.34-184.01c4.17-12.56 17.73-19.45 30.36-15.17 12.57 4.19 19.35 17.79 15.17 30.36zm14.66 57.2l15.52-46.55c3.47-1.29 7.13-2.23 11.05-2.23 17.67 0 32 14.33 32 32s-14.33 32-32 32c-11.38-.01-20.89-6.28-26.57-15.22zM480 384c-17.67 0-32-14.33-32-32s14.33-32 32-32 32 14.33 32 32-14.33 32-32 32z"
      fill="currentColor" /></symbol>
    <symbol viewBox="0 0 640 512" id="cloud">
      <path d="M537.6 226.6c4.1-10.7 6.4-22.4 6.4-34.6 0-53-43-96-96-96-19.7 0-38.1 6-53.3 16.2C367 64.2 315.3 32 256 32c-88.4 0-160 71.6-160 160 0 2.7.1 5.4.2 8.1C40.2 219.8 0 273.2 0 336c0 79.5 64.5 144 144 144h368c70.7 0 128-57.3 128-128 0-61.9-44-113.6-102.4-125.4z"
      fill="currentColor" />
    </symbol>
    <symbol viewBox="0 0 36 32" id="sunrise">
      <path d="M15.681 23.406c2.844-1.175 6.050-0.006 7.537 2.594h-10.45c0.644-1.125 1.625-2.063 2.913-2.594zM5.044 26l-1.775-2.044c-0.587-0.681-0.15-1.744 0.75-1.806l6.656-0.475 0.475-6.656c0.063-0.9 1.125-1.337 1.806-0.75l5.044 4.375 5.044-4.375c0.681-0.587 1.744-0.15 1.806 0.75l0.475 6.656 6.656 0.475c0.9 0.063 1.337 1.125 0.75 1.806l-1.775 2.044h-5.475c-0.781-1.944-2.306-3.594-4.394-4.456-4.113-1.706-8.838 0.256-10.544 4.369-0.012 0.025-0.012 0.056-0.025 0.088h-5.475zM35 29c0.55 0 1 0.45 1 1v1c0 0.55-0.45 1-1 1h-34c-0.55 0-1-0.45-1-1v-1c0-0.55 0.45-1 1-1h34zM11.925 8c-0.887 0-1.337-1.081-0.7-1.706l6.025-5.981c0.412-0.412 1.088-0.412 1.5 0l6.025 5.975c0.637 0.631 0.194 1.713-0.7 1.713h-4.075v5c0 0.55-0.45 1-1 1h-2c-0.55 0-1-0.45-1-1v-5h-4.075z"
      fill="currentColor" />
    </symbol>
    <symbol viewBox="0 0 36 32" id="sunset">
      <path d="M15.681 23.406c2.844-1.175 6.050-0.006 7.537 2.594h-10.45c0.644-1.125 1.625-2.063 2.913-2.594zM5.044 26l-1.775-2.044c-0.587-0.681-0.15-1.744 0.75-1.806l6.656-0.475 0.475-6.656c0.063-0.9 1.125-1.337 1.806-0.75l5.044 4.375 5.044-4.375c0.681-0.587 1.744-0.15 1.806 0.75l0.475 6.656 6.656 0.475c0.9 0.063 1.337 1.125 0.75 1.806l-1.775 2.044h-5.475c-0.781-1.944-2.306-3.594-4.394-4.456-4.113-1.706-8.838 0.256-10.544 4.369-0.012 0.025-0.012 0.056-0.025 0.088h-5.475zM35 29c0.55 0 1 0.45 1 1v1c0 0.55-0.45 1-1 1h-34c-0.55 0-1-0.45-1-1v-1c0-0.55 0.45-1 1-1h34zM17.25 13.688l-6.025-5.975c-0.637-0.631-0.194-1.713 0.7-1.713h4.075v-5c0-0.55 0.45-1 1-1h2c0.55 0 1 0.45 1 1v4.994h4.069c0.894 0 1.338 1.081 0.706 1.712l-6.025 5.981c-0.412 0.412-1.088 0.412-1.5 0z"
      fill="currentColor" />
    </symbol>
    <symbol viewBox="0 0 320 512" id="arrow-left">
      <path d="M34.52 239.03L228.87 44.69c9.37-9.37 24.57-9.37 33.94 0l22.67 22.67c9.36 9.36 9.37 24.52.04 33.9L131.49 256l154.02 154.75c9.34 9.38 9.32 24.54-.04 33.9l-22.67 22.67c-9.37 9.37-24.57 9.37-33.94 0L34.52 272.97c-9.37-9.37-9.37-24.57 0-33.94z"
      fill="currentColor" /></symbol>
    <symbol viewBox="0 0 32 32" id="location">
      <path d="M31 14c0.552 0 1 0.447 1 1v2c0 0.552-0.448 1-1 1h-3.18c-0.844 5.021-4.799 8.976-9.82 9.82v3.18c0 0.552-0.448 1-1 1h-2c-0.553 0-1-0.448-1-1v-3.18c-5.021-0.844-8.976-4.799-9.82-9.82h-3.18c-0.552 0-1-0.448-1-1v-2c0-0.553 0.448-1 1-1h3.18c0.844-5.021 4.799-8.976 9.82-9.82v-3.18c0-0.552 0.447-1 1-1h2c0.552 0 1 0.448 1 1v3.18c5.021 0.844 8.976 4.799 9.82 9.82h3.18zM16 24c4.419 0 8-3.582 8-8s-3.581-8-8-8-8 3.582-8 8 3.581 8 8 8zM16 10.5c3.037 0 5.5 2.463 5.5 5.5s-2.463 5.5-5.5 5.5-5.5-2.463-5.5-5.5 2.463-5.5 5.5-5.5z"
      fill="currentColor" />
    </symbol>
  </defs>
</svg>
